<svg width="12" height="12" viewBox="0 0 12 12" fill="none" xmlns="http://www.w3.org/2000/svg">
<path d="M1.70711 0.292893C1.31658 -0.0976311 0.683418 -0.0976311 0.292894 0.292893C-0.0976307 0.683418 -0.0976307 1.31658 0.292894 1.70711L1.70711 0.292893ZM10.2929 11.7071C10.6834 12.0976 11.3166 12.0976 11.7071 11.7071C12.0976 11.3166 12.0976 10.6834 11.7071 10.2929L10.2929 11.7071ZM11.7071 1.70711C12.0976 1.31658 12.0976 0.683417 11.7071 0.292893C11.3166 -0.0976311 10.6834 -0.0976311 10.2929 0.292893L11.7071 1.70711ZM0.292893 10.2929C-0.0976311 10.6834 -0.0976311 11.3166 0.292893 11.7071C0.683417 12.0976 1.31658 12.0976 1.70711 11.7071L0.292893 10.2929ZM0.292894 1.70711L5.29289 6.70711L6.70711 5.29289L1.70711 0.292893L0.292894 1.70711ZM5.29289 6.70711L10.2929 11.7071L11.7071 10.2929L6.70711 5.29289L5.29289 6.70711ZM10.2929 0.292893L5.29289 5.29289L6.70711 6.70711L11.7071 1.70711L10.2929 0.292893ZM5.29289 5.29289L0.292893 10.2929L1.70711 11.7071L6.70711 6.70711L5.29289 5.29289Z" fill="#808589"/>
</svg>
