<svg width="24" height="25" viewBox="0 0 24 25" fill="none" xmlns="http://www.w3.org/2000/svg">
<path d="M5.5 7L6.37156 19.6376C6.44388 20.6863 7.31565 21.5 8.36682 21.5H15.6332C16.6843 21.5 17.5561 20.6863 17.6284 19.6376L18.5 7" stroke="#808589" stroke-width="2" stroke-linecap="round" stroke-linejoin="round"/>
<path d="M4 6.5H20" stroke="#808589" stroke-width="2" stroke-linecap="round"/>
<path d="M15 11C15 10.4477 14.5523 10 14 10C13.4477 10 13 10.4477 13 11H15ZM13 17C13 17.5523 13.4477 18 14 18C14.5523 18 15 17.5523 15 17H13ZM11 11C11 10.4477 10.5523 10 10 10C9.44772 10 9 10.4477 9 11L11 11ZM9 17C9 17.5523 9.44772 18 10 18C10.5523 18 11 17.5523 11 17H9ZM13 11V17H15V11H13ZM9 11L9 17H11L11 11L9 11Z" fill="#808589"/>
<path d="M15 6.5C15 4.84315 13.6569 3.5 12 3.5C10.3431 3.5 9 4.84315 9 6.5" stroke="#808589" stroke-width="2" stroke-linecap="round" stroke-linejoin="round"/>
</svg>
