<svg width="24" height="24" viewBox="0 0 24 24" fill="none" xmlns="http://www.w3.org/2000/svg">
<path d="M13.818 15.2388C14.3992 14.6954 14.7407 13.9434 14.7674 13.1482C14.7942 12.353 14.5039 11.5797 13.9605 10.9985C13.1956 10.1804 12.0808 9.88116 11.0823 10.1165L0.151344 12.6427L10.7335 15.8638C11.768 16.2382 12.9634 16.0378 13.818 15.2388Z" fill="#C8C8C8"/>
<path d="M18.5004 20.5996C20.6427 18.7655 22.0004 16.0413 22.0004 13C22.0004 7.47715 17.5232 3 12.0004 3C7.34079 3 3.42554 6.18693 2.31543 10.5M5.50039 20.5996C3.96614 19.2861 2.83433 17.5161 2.31543 15.5" stroke="#C8C8C8" stroke-width="2" stroke-linecap="round"/>
</svg>
