<svg width="25" height="24" viewBox="0 0 25 24" fill="none" xmlns="http://www.w3.org/2000/svg">
<path d="M12.5 16C14.16 16 15.5 14.66 15.5 13C15.5 11.88 14.89 10.9 14 10.39L4.29 4.77L9.82 14.35C10.32 15.33 11.33 16 12.5 16ZM12.5 3C10.69 3 9 3.5 7.53 4.32L9.63 5.53C10.5 5.19 11.5 5 12.5 5C16.92 5 20.5 8.58 20.5 13C20.5 15.21 19.61 17.21 18.16 18.65H18.15C18.0573 18.7425 17.9837 18.8524 17.9336 18.9734C17.8834 19.0943 17.8576 19.224 17.8576 19.355C17.8576 19.486 17.8834 19.6157 17.9336 19.7366C17.9837 19.8576 18.0573 19.9675 18.15 20.06C18.54 20.45 19.18 20.45 19.57 20.07C20.5 19.1426 21.2376 18.0406 21.7404 16.8273C22.2432 15.614 22.5014 14.3134 22.5 13C22.5 7.5 18 3 12.5 3ZM2.5 13C2.5 15.76 3.62 18.26 5.43 20.07C5.82 20.45 6.45 20.45 6.84 20.06C6.9327 19.9675 7.00625 19.8576 7.05643 19.7366C7.10661 19.6157 7.13244 19.486 7.13244 19.355C7.13244 19.224 7.10661 19.0943 7.05643 18.9734C7.00625 18.8524 6.9327 18.7425 6.84 18.65C6.0963 17.9093 5.50662 17.0287 5.105 16.059C4.70338 15.0893 4.49775 14.0496 4.5 13C4.5 12 4.69 11 5.04 10.1L3.83 8C3 9.5 2.5 11.18 2.5 13Z" fill="#46B83C"/>
</svg>
