<svg width="25" height="24" viewBox="0 0 25 24" fill="none" xmlns="http://www.w3.org/2000/svg">
<g clip-path="url(#clip0_294_1597)">
<mask id="mask0_294_1597" style="mask-type:luminance" maskUnits="userSpaceOnUse" x="2" y="3" width="26" height="18">
<path d="M6.13604 19.3639C2.62132 15.8491 2.62129 10.1507 6.13604 6.63593C9.65076 3.12122 15.3492 3.12122 18.864 6.63593C22.3787 10.1507 22.3787 15.8491 18.864 19.3639" stroke="white" stroke-width="2" stroke-linecap="round"/>
<path d="M13.3687 8.07576C10.6492 7.59625 8.0559 9.41211 7.57638 12.1316C7.09687 14.851 8.91273 17.4443 11.6322 17.9238C14.3516 18.4034 27.2725 15.6045 27.2725 15.6045C27.2725 15.6045 16.0881 8.55528 13.3687 8.07576Z" fill="black"/>
<path d="M13.0215 10.0453C11.3899 9.75758 9.83385 10.847 9.54614 12.4788C9.25842 14.1105 10.348 15.6664 11.9796 15.9541C13.6113 16.2418 23.3334 14.9098 23.3334 14.9098C23.3334 14.9098 14.6532 10.333 13.0215 10.0453Z" fill="white"/>
</mask>
<g mask="url(#mask0_294_1597)">
<path d="M0.5 0H24.5V24H0.5V0Z" fill="#F60A1E"/>
</g>
</g>
<defs>
<clipPath id="clip0_294_1597">
<rect width="24" height="24" fill="white" transform="matrix(-1 0 0 1 24.5 0)"/>
</clipPath>
</defs>
</svg>
