<svg width="24" height="24" viewBox="0 0 24 24" fill="none" xmlns="http://www.w3.org/2000/svg">
<path d="M10.5 13C6.91015 13 4.5 15.2503 4.5 18.5058V19C4.5 19.5523 4.94772 20 5.5 20H15.5C16.0523 20 16.5 19.5523 16.5 19V18.5058C16.5 15.2503 14.0899 13 10.5 13Z" stroke="#808589" stroke-width="2" stroke-linecap="round"/>
<path d="M13 7.6V9.4H15V7.6H13ZM8 9.4V7.6H6V9.4H8ZM10.5 12C9.14566 12 8 10.8627 8 9.4H6C6 11.9138 7.98835 14 10.5 14V12ZM13 9.4C13 10.8627 11.8543 12 10.5 12V14C13.0116 14 15 11.9138 15 9.4H13ZM10.5 5C11.8543 5 13 6.13732 13 7.6H15C15 5.08623 13.0116 3 10.5 3V5ZM10.5 3C7.98835 3 6 5.08623 6 7.6H8C8 6.13732 9.14566 5 10.5 5V3Z" fill="#808589"/>
<path d="M19.5 8V13" stroke="#808589" stroke-width="2" stroke-linecap="round" stroke-linejoin="round"/>
<circle cx="19.5" cy="16.75" r="1.25" fill="#808589"/>
</svg>
