<svg width="25" height="24" viewBox="0 0 25 24" fill="none" xmlns="http://www.w3.org/2000/svg">
<path d="M12.5 1.37988L15.36 12.0599C15.7 13.0999 15.46 14.2899 14.64 15.1199C14.0758 15.6823 13.3116 15.9981 12.515 15.9981C11.7184 15.9981 10.9542 15.6823 10.39 15.1199C9.6 14.3299 9.34 13.1999 9.61 12.2099M9.9 3.34988L9.28 5.67988C7.8582 6.30365 6.64894 7.32814 5.80004 8.62813C4.95114 9.92812 4.49938 11.4473 4.5 12.9999C4.5 15.2099 5.39 17.2099 6.84 18.6499H6.85C6.9427 18.7424 7.01625 18.8523 7.06643 18.9733C7.11661 19.0942 7.14244 19.2239 7.14244 19.3549C7.14244 19.4859 7.11661 19.6155 7.06643 19.7365C7.01625 19.8575 6.9427 19.9674 6.85 20.0599C6.46 20.4499 5.82 20.4499 5.43 20.0699C4.50002 19.1425 3.76243 18.0405 3.25961 16.8272C2.75679 15.6139 2.49864 14.3132 2.5 12.9999C2.5 8.37988 5.64 4.49988 9.9 3.34988ZM15.1 3.35988C19.35 4.49988 22.5 8.39988 22.5 12.9999C22.5 15.7599 21.38 18.2599 19.57 20.0699C19.18 20.4499 18.55 20.4499 18.16 20.0599C18.0673 19.9674 17.9937 19.8575 17.9436 19.7365C17.8934 19.6155 17.8676 19.4859 17.8676 19.3549C17.8676 19.2239 17.8934 19.0942 17.9436 18.9733C17.9937 18.8523 18.0673 18.7424 18.16 18.6499C18.9037 17.9092 19.4934 17.0286 19.895 16.0589C20.2966 15.0892 20.5022 14.0495 20.5 12.9999C20.5 9.64988 18.56 6.85988 15.71 5.64988" fill="#FFC805"/>
</svg>
